<svg width="178" height="36" viewBox="0 0 178 36" fill="none" xmlns="http://www.w3.org/2000/svg">
<g clip-path="url(#clip0_2302_3688)">
<path d="M0 0H81V36H0V0Z" fill="#0F1015"/>
<path d="M160.426 35.9999C158.774 35.9999 157.472 35.5239 156.52 34.5719C155.596 33.6199 155.134 32.3459 155.134 30.7499V14.3699C155.134 12.7739 155.596 11.4999 156.52 10.5479C157.472 9.59587 158.774 9.11987 160.426 9.11987H171.934C173.754 9.11987 175.126 9.60987 176.05 10.5899C177.002 11.5699 177.478 12.9559 177.478 14.7479V21.4259C177.478 23.0499 177.114 24.2679 176.386 25.0799C175.686 25.8639 174.524 26.2559 172.9 26.2559H162.694V29.4059H177.856L173.488 35.9999H160.426ZM170.002 15.7139H162.694V20.2079H170.002V15.7139Z" fill="#0F1015"/>
<path d="M118.881 14.3699C118.881 12.7739 119.343 11.4999 120.267 10.5479C121.219 9.59587 122.521 9.11987 124.173 9.11987H150.297V35.9999H143.199V15.9239H138.201V35.9999H131.103V15.9239H126.105V35.9999H118.881V14.3699Z" fill="#0F1015"/>
<path d="M105.766 35.9998V9.11984H113.41V35.9998H105.766ZM105.766 0.131836H113.41V6.85184H105.766V0.131836Z" fill="#0F1015"/>
<path d="M86.2217 1.81189H93.8657V9.11989H103.064L98.0237 15.8399H93.8657V29.1959H100.46V35.9999H91.5137C89.8617 35.9999 88.5597 35.5239 87.6077 34.5719C86.6837 33.6199 86.2217 32.3459 86.2217 30.7499V15.8399H81.5177V9.11989H86.2217V1.81189Z" fill="#0F1015"/>
<path d="M58.0551 14.3699C58.0551 12.7739 58.5171 11.4999 59.4411 10.5479C60.3931 9.59587 61.6951 9.11987 63.3471 9.11987H80.1051L75.0651 15.7979H65.6151V19.4939H78.3831V30.7499C78.3831 32.3459 77.9071 33.6199 76.9551 34.5719C76.0311 35.5239 74.7431 35.9999 73.0911 35.9999H57.8451V29.3219H70.8231V25.5419H58.0551V14.3699Z" fill="#F6F7F9"/>
<path d="M53.2077 30.7499C53.2077 32.3459 52.7317 33.6199 51.7797 34.5719C50.8557 35.5239 49.5677 35.9999 47.9157 35.9999H35.8617C34.2097 35.9999 32.9077 35.5239 31.9557 34.5719C31.0317 33.6199 30.5697 32.3459 30.5697 30.7499V14.3699C30.5697 12.7739 31.0317 11.4999 31.9557 10.5479C32.9077 9.59587 34.2097 9.11987 35.8617 9.11987H47.9157C49.5677 9.11987 50.8557 9.59587 51.7797 10.5479C52.7317 11.4999 53.2077 12.7739 53.2077 14.3699V30.7499ZM38.1297 15.9239V29.1959H45.6477V15.9239H38.1297Z" fill="#F6F7F9"/>
<path d="M10.794 8.65789V19.4519H18.858V8.65789H10.794ZM3.02397 35.9999V13.1099L6.88797 8.65789H0.167969L5.16597 1.81189H21.084C22.848 1.81189 24.206 2.30189 25.158 3.28189C26.138 4.23389 26.628 5.54989 26.628 7.22989V20.8799C26.628 22.5599 26.138 23.8899 25.158 24.8699C24.206 25.8219 22.848 26.2979 21.084 26.2979H10.794V35.9999H3.02397Z" fill="#F6F7F9"/>
</g>
<defs>
<clipPath id="clip0_2302_3688">
<rect width="178" height="36" fill="white"/>
</clipPath>
</defs>
</svg>
